<svg width="1833" height="1086" viewBox="0 0 1833 1086" fill="none" xmlns="http://www.w3.org/2000/svg">
<rect x="85" width="1748" height="880" rx="45" fill="#FFFBFB"/>
<mask id="mask0_13_159" style="mask-type:alpha" maskUnits="userSpaceOnUse" x="0" y="206" width="1748" height="880">
<path d="M0 251C0 226.147 20.1472 206 45 206H1703C1727.85 206 1748 226.147 1748 251V1041C1748 1065.85 1727.85 1086 1703 1086H45C20.1472 1086 0 1065.85 0 1041V251Z" fill="#EEF2FD"/>
</mask>
<g mask="url(#mask0_13_159)">
<path d="M-67.0358 -137.647C-116.271 -87.1392 -146.048 -20.8395 -151.093 49.5146C-156.139 119.869 -136.129 189.739 -94.605 246.756C-53.0813 303.773 7.27751 344.259 75.7855 361.046C144.294 377.833 216.532 369.839 279.712 338.478C342.891 307.117 392.937 254.413 420.989 189.697C449.04 124.98 453.289 52.4249 432.982 -15.1235C412.675 -82.6718 369.122 -140.856 310.034 -179.376C250.946 -217.896 180.135 -234.267 110.136 -225.59L128.27 -79.2969C163.728 -83.6923 199.599 -75.3996 229.53 -55.887C259.462 -36.3743 281.524 -6.90039 291.81 27.3169C302.097 61.5341 299.945 98.2875 285.735 131.07C271.525 163.853 246.174 190.551 214.17 206.437C182.166 222.323 145.573 226.373 110.869 217.869C76.166 209.365 45.5907 188.857 24.5565 159.974C3.52223 131.092 -6.61416 95.6984 -4.05818 60.0599C-1.50223 24.4214 13.5813 -9.16336 38.5219 -34.7486L-67.0358 -137.647Z" fill="#FFF6F0"/>
<circle cx="1063" cy="718" r="116" fill="#FFE4EC"/>
<path d="M817.195 779.611C817.01 777.309 819.387 775.67 821.473 776.662L832.568 781.935C834.654 782.926 834.885 785.804 832.983 787.114L822.869 794.087C820.967 795.398 818.36 794.158 818.176 791.856L817.195 779.611Z" fill="#F0DDD2"/>
<path d="M358.569 596.806C373.47 620.299 378.428 648.749 372.352 675.897C366.277 703.045 349.665 726.668 326.172 741.569C302.68 756.47 274.23 761.428 247.081 755.352C219.933 749.277 196.31 732.665 181.409 709.172L221.261 683.896C229.458 696.82 242.453 705.958 257.387 709.3C272.322 712.642 287.973 709.915 300.896 701.718C313.82 693.521 322.958 680.526 326.3 665.591C329.642 650.656 326.915 635.006 318.718 622.082L358.569 596.806Z" fill="url(#paint0_linear_13_159)"/>
</g>
<defs>
<linearGradient id="paint0_linear_13_159" x1="229.301" y1="571.727" x2="322.048" y2="757.646" gradientUnits="userSpaceOnUse">
<stop stop-color="#B5DFBC" stop-opacity="0"/>
<stop offset="0.995857" stop-color="#F4FFFE" stop-opacity="0.63"/>
</linearGradient>
</defs>
</svg>
