<svg width="238" height="169" viewBox="0 0 238 169" fill="none" xmlns="http://www.w3.org/2000/svg">
<path d="M135.165 89.1121C158.724 102.088 199.683 122.881 237.46 133.342" stroke="white" stroke-linecap="round" stroke-linejoin="round" stroke-dasharray="2 4"/>
<path d="M115.397 77.8252C115.397 77.8252 122.945 82.4501 135.165 89.1856" stroke="white" stroke-linecap="round" stroke-linejoin="round" stroke-dasharray="2 4"/>
<path d="M106.917 77.1461L123.859 33.5029L1 1L106.917 77.1461Z" fill="white" stroke="white" stroke-width="1.2629" stroke-linecap="round" stroke-linejoin="round"/>
<path d="M115.176 38.7886L106.917 77.1461L1 1L115.176 38.7886Z" fill="#FFFBFB" stroke="white" stroke-width="1.2629" stroke-linecap="round" stroke-linejoin="round"/>
<path d="M115.176 38.7886L95.8988 56.7009L1 1L115.176 38.7886Z" fill="white" stroke="#3C2B4A" stroke-width="1.2629" stroke-linecap="round" stroke-linejoin="round"/>
<path d="M123.859 33.5029L141.021 25.9416L1 1L123.859 33.5029Z" fill="white" stroke="#3C2B4A" stroke-width="1.2629" stroke-linecap="round" stroke-linejoin="round"/>
<path d="M83.0527 70.3557L87.0301 72.9985" stroke="white" stroke-linecap="round" stroke-linejoin="round"/>
<path d="M61.3552 55.9301L74.6753 64.7761" stroke="white" stroke-linecap="round" stroke-linejoin="round"/>
<path d="M46.3931 160.688V113.356L171.266 135.123L46.3931 160.688Z" fill="white" stroke="white" stroke-width="1.2629" stroke-linecap="round" stroke-linejoin="round"/>
<path d="M52.503 121.872L46.3931 160.689L171.266 135.123L52.503 121.872Z" fill="#FFFBFB" stroke="white" stroke-width="1.2629" stroke-linecap="round" stroke-linejoin="round"/>
<path d="M52.5027 121.872L63.8594 146.483L171.266 135.123L52.5027 121.872Z" fill="white" stroke="#3C2B4A" stroke-width="1.2629" stroke-linecap="round" stroke-linejoin="round"/>
<path d="M46.393 113.356L33.293 99.1512L171.266 135.123L46.393 113.356Z" fill="white" stroke="#3C2B4A" stroke-width="1.2629" stroke-linecap="round" stroke-linejoin="round"/>
<path d="M91.1091 159.807L101.941 157.421" stroke="white" stroke-linecap="round" stroke-linejoin="round"/>
<path d="M53.0615 168.195L80.294 162.193" stroke="white" stroke-linecap="round" stroke-linejoin="round"/>
</svg>
