<svg width="33" height="41" viewBox="0 0 33 41" fill="none" xmlns="http://www.w3.org/2000/svg">
<path d="M25.2273 39.2518C25.2273 39.6306 25.0741 39.9939 24.8013 40.2618C24.5285 40.5297 24.1586 40.6802 23.7728 40.6802H9.22749C8.84173 40.6802 8.47176 40.5297 8.19899 40.2618C7.92621 39.9939 7.77296 39.6306 7.77296 39.2518C7.77296 38.8729 7.92621 38.5096 8.19899 38.2417C8.47176 37.9739 8.84173 37.8234 9.22749 37.8234H23.7728C24.1586 37.8234 24.5285 37.9739 24.8013 38.2417C25.0741 38.5096 25.2273 38.8729 25.2273 39.2518ZM32.5 16.3974C32.5048 18.7774 31.9571 21.1272 30.8986 23.2681C29.84 25.4091 28.2984 27.2849 26.3909 28.7531C26.0307 29.0201 25.7382 29.3654 25.5363 29.7618C25.3345 30.1583 25.2287 30.5952 25.2273 31.0385V32.1098C25.2273 32.8675 24.9208 33.5941 24.3753 34.1299C23.8297 34.6656 23.0898 34.9666 22.3183 34.9666H10.682C9.91049 34.9666 9.17056 34.6656 8.62501 34.1299C8.07945 33.5941 7.77296 32.8675 7.77296 32.1098V31.0385C7.77172 30.6015 7.66965 30.1704 7.47441 29.7776C7.27916 29.3849 6.99584 29.0407 6.6457 28.7709C4.74222 27.3129 3.20024 25.45 2.1358 23.3222C1.07136 21.1945 0.512171 18.8573 0.500316 16.4867C0.445771 7.96991 7.46388 0.881497 16.1183 0.685093C18.252 0.632631 20.3748 1.00041 22.3614 1.76673C24.348 2.53305 26.1581 3.68239 27.685 5.14691C29.212 6.61144 30.4247 8.36148 31.2516 10.2938C32.0786 12.2261 32.5031 14.3014 32.5 16.3974ZM23.3546 16.8081C23.0788 16.5399 22.7064 16.3894 22.3183 16.3894C21.9301 16.3894 21.5577 16.5399 21.2819 16.8081L16.5001 21.5218L11.7184 16.8081C11.4358 16.5803 11.077 16.4639 10.7118 16.4815C10.3467 16.4992 10.0012 16.6495 9.7427 16.9034C9.48418 17.1573 9.33106 17.4965 9.31313 17.8551C9.29519 18.2137 9.41373 18.566 9.64567 18.8436L15.0456 24.1286V30.6814C15.0456 31.0602 15.1989 31.4236 15.4716 31.6914C15.7444 31.9593 16.1144 32.1098 16.5001 32.1098C16.8859 32.1098 17.2559 31.9593 17.5287 31.6914C17.8014 31.4236 17.9547 31.0602 17.9547 30.6814V24.1286L23.3546 18.8436C23.6277 18.5728 23.781 18.207 23.781 17.8258C23.781 17.4447 23.6277 17.0789 23.3546 16.8081Z" fill="#527CEB"/>
</svg>
