<svg width="32" height="31" viewBox="0 0 32 31" fill="none" xmlns="http://www.w3.org/2000/svg">
<path d="M27.5254 5.58456V25.4154C27.5254 25.8688 27.3453 26.3037 27.0247 26.6243C26.7041 26.9449 26.2692 27.125 25.8158 27.125H5.98495C5.53155 27.125 5.09671 26.9449 4.77611 26.6243C4.4555 26.3037 4.27539 25.8688 4.27539 25.4154V5.58456C4.27539 5.13116 4.4555 4.69632 4.77611 4.37572C5.09671 4.05511 5.53155 3.875 5.98495 3.875L25.8158 3.875C26.2692 3.875 26.7041 4.05511 27.0247 4.37572C27.3453 4.69632 27.5254 5.13116 27.5254 5.58456ZM11.1136 12.7647H7.69451V23.7059H11.1136V12.7647ZM11.4213 9.00368C11.4231 8.74505 11.374 8.4886 11.2767 8.24897C11.1794 8.00934 11.0358 7.79122 10.8542 7.60707C10.6726 7.42292 10.4565 7.27635 10.2182 7.17572C9.97998 7.07509 9.72424 7.02238 9.46561 7.02059H9.40407C8.87812 7.02059 8.37371 7.22952 8.00181 7.60142C7.62991 7.97332 7.42098 8.47773 7.42098 9.00368C7.42098 9.52962 7.62991 10.034 8.00181 10.4059C8.37371 10.7778 8.87812 10.9868 9.40407 10.9868C9.66271 10.9931 9.92008 10.9485 10.1615 10.8553C10.4028 10.7622 10.6235 10.6224 10.8108 10.444C10.9982 10.2655 11.1485 10.0519 11.2533 9.81533C11.358 9.57876 11.4151 9.32387 11.4213 9.06522V9.00368ZM24.1063 17.0591C24.1063 13.7699 22.0138 12.4912 19.9349 12.4912C19.2543 12.4571 18.5766 12.6021 17.9695 12.9116C17.3623 13.2212 16.847 13.6845 16.4748 14.2554H16.3791V12.7647H13.1651V23.7059H16.5842V17.8865C16.5348 17.2905 16.7225 16.6991 17.1066 16.2407C17.4908 15.7824 18.0402 15.4941 18.6357 15.4385H18.7656C19.8529 15.4385 20.6598 16.1223 20.6598 17.8455V23.7059H24.0789L24.1063 17.0591Z" fill="white"/>
</svg>
