<svg width="1627" height="729" viewBox="0 0 1627 729" fill="none" xmlns="http://www.w3.org/2000/svg">
<path d="M848.162 74.6876C871.288 96.2961 885.242 124.51 886.955 153.123C888.668 181.735 877.999 208.403 857.296 227.259C836.593 246.115 807.551 255.614 776.559 253.668C745.566 251.722 715.163 238.489 692.037 216.88L728.643 183.541C740.925 195.016 757.071 202.044 773.53 203.078C789.989 204.112 805.412 199.067 816.407 189.053C827.402 179.039 833.068 164.877 832.158 149.681C831.248 134.486 823.838 119.502 811.556 108.027L848.162 74.6876Z" fill="url(#paint0_linear_24_164)"/>
<path d="M1523.82 598.691C1521.19 592.665 1527.28 586.281 1534.66 587.33L1586.95 594.77C1594.18 595.797 1597.23 603.207 1592.48 608.185L1558.85 643.449C1554.1 648.426 1545.06 647.292 1542.49 641.395L1523.82 598.691Z" fill="#592C5E"/>
<ellipse cx="8.9342" cy="7.82254" rx="8.9342" ry="7.82254" transform="matrix(0.978636 0.2056 -0.272806 0.962069 112.385 709.746)" fill="#FFCC4D"/>
<ellipse cx="12.4086" cy="10.8646" rx="12.4086" ry="10.8646" transform="matrix(0.978636 0.2056 -0.272806 0.962069 76.2017 659.083)" fill="#568968"/>
<ellipse cx="10.4232" cy="8.69171" rx="10.4232" ry="8.69171" transform="matrix(0.978636 0.2056 -0.272806 0.962069 5.43677 636.774)" fill="#D54B4B"/>
<ellipse cx="12.4086" cy="10.8646" rx="12.4086" ry="10.8646" transform="matrix(0.978636 0.2056 -0.272806 0.962069 634.928 585.129)" fill="#7FA826"/>
<defs>
<linearGradient id="paint0_linear_24_164" x1="718.847" y1="88.727" x2="840.26" y2="256.907" gradientUnits="userSpaceOnUse">
<stop stop-color="#DB1BFA" stop-opacity="0"/>
<stop offset="0.995857" stop-color="#7B78FF" stop-opacity="0.63"/>
</linearGradient>
</defs>
</svg>
