<svg width="37" height="38" viewBox="0 0 37 38" fill="none" xmlns="http://www.w3.org/2000/svg">
<path d="M9.75 16.9302L16.75 1.18018C18.1424 1.18018 19.4777 1.7333 20.4623 2.71787C21.4469 3.70243 22 5.03779 22 6.43018V13.4302H31.905C32.4123 13.4244 32.9149 13.5291 33.3778 13.7368C33.8406 13.9446 34.2528 14.2505 34.5858 14.6333C34.9187 15.0162 35.1644 15.4669 35.3058 15.9541C35.4473 16.4414 35.4811 16.9536 35.405 17.4552L32.99 33.2052C32.8634 34.0398 32.4395 34.8005 31.7963 35.3472C31.1532 35.8939 30.3341 36.1897 29.49 36.1802H9.75M9.75 16.9302V36.1802M9.75 16.9302H4.5C3.57174 16.9302 2.6815 17.2989 2.02513 17.9553C1.36875 18.6117 1 19.5019 1 20.4302V32.6802C1 33.6084 1.36875 34.4987 2.02513 35.1551C2.6815 35.8114 3.57174 36.1802 4.5 36.1802H9.75" stroke="#527CEB" stroke-width="2" stroke-linecap="round" stroke-linejoin="round"/>
</svg>
