<svg width="39" height="31" viewBox="0 0 39 31" fill="none" xmlns="http://www.w3.org/2000/svg">
<path d="M2.60096 9.67107L17.5999 5.53501H17.6182L34.7547 0.793252C35.1911 0.670524 35.652 0.647311 36.0996 0.725509C36.5473 0.803708 36.9691 0.9811 37.3306 1.2432C37.6969 1.49825 37.9939 1.8321 38.1972 2.21723C38.4005 2.60237 38.5042 3.02775 38.4999 3.45833V27.444C38.4999 28.1754 38.1944 28.8771 37.6502 29.3958C37.106 29.9146 36.3671 30.2084 35.5951 30.2129C35.3113 30.2136 35.0288 30.1787 34.7547 30.1091L19.4999 25.8865V27.9113C19.4999 28.6456 19.192 29.3499 18.6438 29.8692C18.0956 30.3885 17.3521 30.6802 16.5769 30.6802H10.7307C9.95549 30.6802 9.212 30.3885 8.66381 29.8692C8.11563 29.3499 7.80767 28.6456 7.80767 27.9113V22.6676L2.60096 21.2313C1.9948 21.0601 1.46305 20.7084 1.08459 20.2283C0.706139 19.7482 0.501133 19.1654 0.5 18.5662V12.3361C0.501133 11.737 0.706139 11.1541 1.08459 10.6741C1.46305 10.194 1.9948 9.84226 2.60096 9.67107ZM10.7307 27.9113H16.5769V25.0904L10.7307 23.4637V27.9113ZM3.42307 18.5662L9.70766 20.2968L16.5769 22.2004V8.70195L3.42307 12.3361V18.5662Z" fill="#527CEB"/>
</svg>
