<svg width="37" height="37" viewBox="0 0 37 37" fill="none" xmlns="http://www.w3.org/2000/svg">
<path d="M36.2335 22.3996L33.7594 19.1119C33.776 18.813 33.7594 18.4975 33.7594 18.2651L36.2335 14.9608C36.3565 14.8 36.4401 14.6126 36.4776 14.4136C36.5151 14.2146 36.5054 14.0096 36.4493 13.8151C36.0309 12.2843 35.4229 10.8117 34.6395 9.43154C34.5384 9.25622 34.3995 9.10564 34.2329 8.99075C34.0663 8.87585 33.8762 8.79954 33.6764 8.76736L29.6083 8.18621L28.994 7.57185L28.4128 3.50378C28.3803 3.30617 28.3057 3.11788 28.1939 2.9517C28.0822 2.78552 27.936 2.64535 27.7652 2.54072C26.3779 1.76018 24.9001 1.15237 23.3651 0.730845C23.1705 0.674765 22.9655 0.665081 22.7666 0.702568C22.5676 0.740056 22.3802 0.823671 22.2194 0.946702L18.9317 3.40415H18.0683L14.7806 0.946702C14.6198 0.823671 14.4324 0.740056 14.2334 0.702568C14.0345 0.665081 13.8295 0.674765 13.6349 0.730845C12.1041 1.14931 10.6315 1.7573 9.25136 2.54072C9.07605 2.6418 8.92546 2.78069 8.81057 2.94728C8.69568 3.11387 8.61937 3.30398 8.58719 3.50378L8.00603 7.57185L7.39167 8.18621L3.3236 8.76736C3.12381 8.79954 2.9337 8.87585 2.7671 8.99075C2.60051 9.10564 2.46162 9.25622 2.36055 9.43154C1.57713 10.8117 0.969132 12.2843 0.550669 13.8151C0.494589 14.0096 0.484905 14.2146 0.522392 14.4136C0.55988 14.6126 0.643495 14.8 0.766526 14.9608L3.24058 18.2485V19.0953L0.766526 22.3996C0.643495 22.5604 0.55988 22.7478 0.522392 22.9467C0.484905 23.1457 0.494589 23.3507 0.550669 23.5453C0.969132 25.0761 1.57713 26.5487 2.36055 27.9288C2.46162 28.1041 2.60051 28.2547 2.7671 28.3696C2.9337 28.4845 3.12381 28.5608 3.3236 28.593L7.39167 29.1741L8.00603 29.7885L8.58719 33.8566C8.61937 34.0564 8.69568 34.2465 8.81057 34.4131C8.92546 34.5797 9.07605 34.7186 9.25136 34.8196C10.6315 35.603 12.1041 36.211 13.6349 36.6295C13.7482 36.6623 13.8656 36.6791 13.9836 36.6793C14.2716 36.6831 14.5525 36.5895 14.7806 36.4137L18.0683 33.9562H18.9317L22.2194 36.4137C22.3802 36.5367 22.5676 36.6203 22.7666 36.6578C22.9655 36.6953 23.1705 36.6856 23.3651 36.6295C24.8969 36.2141 26.3699 35.6059 27.7486 34.8196C27.924 34.7186 28.0745 34.5797 28.1894 34.4131C28.3043 34.2465 28.3806 34.0564 28.4128 33.8566L28.994 29.7719C29.1932 29.5726 29.4257 29.3568 29.5917 29.1741L33.6764 28.593C33.8762 28.5608 34.0663 28.4845 34.2329 28.3696C34.3995 28.2547 34.5384 28.1041 34.6395 27.9288C35.4229 26.5487 36.0309 25.0761 36.4493 23.5453C36.5054 23.3507 36.5151 23.1457 36.4776 22.9467C36.4401 22.7478 36.3565 22.5604 36.2335 22.3996ZM18.5 25.9861C17.055 25.9861 15.6425 25.5576 14.441 24.7548C13.2396 23.952 12.3032 22.811 11.7502 21.476C11.1972 20.1411 11.0526 18.6721 11.3345 17.2549C11.6164 15.8376 12.3122 14.5359 13.3339 13.5141C14.3557 12.4924 15.6575 11.7965 17.0747 11.5146C18.4919 11.2327 19.9609 11.3774 21.2959 11.9304C22.6308 12.4833 23.7719 13.4198 24.5747 14.6212C25.3774 15.8227 25.8059 17.2352 25.8059 18.6802C25.8059 20.6178 25.0362 22.4761 23.6661 23.8462C22.2959 25.2164 20.4377 25.9861 18.5 25.9861Z" fill="#527CEB"/>
</svg>
